# xmcd
#
# Track frame offsets: 
#        150
#        14120
#        24372
#        34866
#        51496
#        81124
#        95648
#        109671
#        123741
#        139931
#        154130
#        167319
#        180105
#        191685
#
# Disc length: 2753 seconds
#
# Revision: 0
# Processed by: cddbd v1.4PL0 Copyright (c) Steve Scherf et al.
# Submitted via: ExactAudioCopy v0.90a11
#
DISCID=b70abf0e
DTITLE=Canned Heat - Rollin' And Tumbin'
DYEAR=1900
DGENRE=
TTITLE0=Rollin' And Tumblin'
TTITLE1=Bullfrog Blues
TTITLE2=Evil Is Going On
TTITLE3=Coin' Down Slow
TTITLE4=Catfish Blues
TTITLE5=Dust My Broom
TTITLE6=Help Me
TTITLE7=Big Road Blues
TTITLE8=The Story Of My Life
TTITLE9=The Road Song
TTITLE10=Rich Woman
TTITLE11=Same All Over
TTITLE12=Sic'em Pigs
TTITLE13=Time Was
EXTD=
EXTT0=
EXTT1=
EXTT2=
EXTT3=
EXTT4=
EXTT5=
EXTT6=
EXTT7=
EXTT8=
EXTT9=
EXTT10=
EXTT11=
EXTT12=
EXTT13=
PLAYORDER=
